<svg width="560" height="700" viewBox="0 0 560 700" xmlns="http://www.w3.org/2000/svg" font-family="-apple-system,Segoe UI,Roboto,sans-serif">
<defs>
<marker id="arr" viewBox="0 0 10 10" refX="8" refY="5" markerWidth="7" markerHeight="7" orient="auto-start-reverse">
<path d="M2 1L8 5L2 9" fill="none" stroke="#ffffff" stroke-width="1.6" stroke-linecap="round" stroke-linejoin="round"/>
</marker>
</defs>
<rect x="20" y="20" width="520" height="660" rx="22" fill="#5a3a22"/>
<rect x="34" y="34" width="492" height="632" rx="14" fill="#714a2c"/>
<rect x="70" y="70" width="420" height="560" rx="6" fill="#0f6e56" stroke="#0a513f" stroke-width="2"/>
<line x1="175" y1="70" x2="175" y2="630" stroke="#cfe0d8" stroke-width="1" stroke-dasharray="2 6"/>
<line x1="280" y1="70" x2="280" y2="630" stroke="#bcd6cb" stroke-width="1" stroke-dasharray="2 6"/>
<line x1="385" y1="70" x2="385" y2="630" stroke="#cfe0d8" stroke-width="1" stroke-dasharray="2 6"/>
<text x="175" y="624" text-anchor="middle" fill="#cfe8de" font-size="11">1/4</text>
<text x="280" y="624" text-anchor="middle" fill="#cfe8de" font-size="11">1/2</text>
<text x="385" y="624" text-anchor="middle" fill="#cfe8de" font-size="11">3/4</text>
<text x="280" y="50" text-anchor="middle" fill="#f0e9d8" font-size="14" font-weight="600">Tabela 1 (superior)</text>
<text x="280" y="660" text-anchor="middle" fill="#f0e9d8" font-size="14" font-weight="600">Tabela 3 (inferior)</text>
<text x="46" y="350" text-anchor="middle" fill="#f0e9d8" font-size="14" font-weight="600" transform="rotate(-90 46 350)">Tabela 4 (esquerda)</text>
<text x="514" y="350" text-anchor="middle" fill="#f0e9d8" font-size="14" font-weight="600" transform="rotate(90 514 350)">Tabela 2 (direita)</text>
<circle cx="70" cy="70" r="15" fill="#10130f"/>
<circle cx="490" cy="70" r="15" fill="#10130f"/>
<circle cx="70" cy="350" r="15" fill="#10130f"/>
<circle cx="490" cy="350" r="15" fill="#10130f"/>
<circle cx="70" cy="630" r="15" fill="#10130f"/>
<circle cx="490" cy="630" r="15" fill="#10130f"/>
<circle cx="490" cy="70" r="19" fill="none" stroke="#ffffff" stroke-width="2.5"/>
<text x="490" y="71" text-anchor="middle" dominant-baseline="middle" fill="#fff" font-size="13" font-weight="700">C</text>

<line x1="216.3" y1="535.3" x2="307.3" y2="70" stroke="#ffffff" stroke-width="2" stroke-dasharray="6 5" marker-end="url(#arr)"/>
<text x="193" y="455" fill="#ffffff" font-size="13">linha 2</text>

<line x1="256.5" y1="369.4" x2="499.2" y2="58.2" stroke="#ffd24a" stroke-width="2.6" stroke-dasharray="10 6"/>
<text x="395" y="205" fill="#ffd24a" font-size="13">linha 1</text>

<line x1="267" y1="356" x2="327" y2="356" stroke="#7c7c76" stroke-width="1" stroke-dasharray="3 3"/>
<line x1="213" y1="552" x2="273" y2="552" stroke="#7c7c76" stroke-width="1" stroke-dasharray="3 3"/>
<path d="M 311 356 A 44 44 0 0 0 239.9 390.7" fill="none" stroke="#ffd24a" stroke-width="1.6"/>
<text x="318" y="333" fill="#ffd24a" font-size="13">&#952;&#8321; = 52&#176;</text>
<path d="M 263 552 A 50 50 0 0 0 222.6 502.9" fill="none" stroke="#ffffff" stroke-width="1.6"/>
<text x="270" y="528" fill="#ffffff" font-size="13">&#952;&#8322; = 79&#176;</text>

<circle cx="246.1" cy="382.8" r="17" fill="none" stroke="#ffffff" stroke-width="1.6" stroke-dasharray="4 3"/>
<circle cx="246.1" cy="382.8" r="2.4" fill="#ffffff"/>
<text x="246" y="418" text-anchor="middle" fill="#ffffff" font-size="13">fantasma</text>

<circle cx="307.3" cy="70" r="6" fill="#ffffff"/>
<text x="320" y="58" text-anchor="middle" fill="#ffffff" font-size="16" font-weight="700">A</text>

<circle cx="267" cy="356" r="17" fill="#e24b4a" stroke="#a32d2d" stroke-width="1.5"/>
<text x="267" y="357" text-anchor="middle" dominant-baseline="middle" fill="#fff" font-size="12" font-weight="600">obj</text>
<circle cx="213" cy="552" r="17" fill="#f7f5ef" stroke="#9a988f" stroke-width="1.5"/>
<text x="213" y="553" text-anchor="middle" dominant-baseline="middle" fill="#555" font-size="12" font-weight="600">B</text>
</svg>
